<svg version="1.1" xmlns="http://www.w3.org/2000/svg" xmlns:xlink="http://www.w3.org/1999/xlink" width="800px" height="800px" viewBox="0,0,256,256"><g fill="#f1f1f1" fill-rule="nonzero" stroke="none" stroke-width="1" stroke-linecap="butt" stroke-linejoin="miter" stroke-miterlimit="10" stroke-dasharray="" stroke-dashoffset="0" font-family="none" font-weight="none" font-size="none" text-anchor="none" style="mix-blend-mode: normal"><g transform="translate(-0.00002,0) scale(10.66667,10.66667)"><path d="M8.35179,20.2418c0.84109,1.0692 2.16241,1.7582 3.64821,1.7582c1.4858,0 2.8071,-0.689 3.6482,-1.7582c-2.4218,0.3282 -4.8746,0.3282 -7.29641,0z"></path><path d="M18.7491,9v0.7041c0,0.845 0.2412,1.6711 0.6931,2.3741l1.1074,1.723c1.0116,1.5737 0.2394,3.7127 -1.52,4.2104c-4.6023,1.3018 -9.45686,1.3018 -14.05924,0c-1.75931,-0.4977 -2.53154,-2.6367 -1.52,-4.2104l1.10744,-1.723c0.45192,-0.703 0.69307,-1.5291 0.69307,-2.3741v-0.7041c0,-3.86599 3.02169,-7 6.74913,-7c3.7274,0 6.7491,3.13401 6.7491,7z"></path></g></g></svg>