<svg version="1.1" xmlns="http://www.w3.org/2000/svg" xmlns:xlink="http://www.w3.org/1999/xlink" width="800px" height="800px" viewBox="0,0,256,256"><g fill="#f1f1f1" fill-rule="nonzero" stroke="none" stroke-width="1" stroke-linecap="butt" stroke-linejoin="miter" stroke-miterlimit="10" stroke-dasharray="" stroke-dashoffset="0" font-family="none" font-weight="none" font-size="none" text-anchor="none" style="mix-blend-mode: normal"><g transform="translate(5.33333,-2.95366) scale(10.66667,10.66667)"><path d="M12.8324,21.8013c3.1259,-0.6266 7.1676,-2.8753 7.1676,-8.6901c0,-5.2916 -3.8733,-8.81527 -6.6585,-10.43435c-0.618,-0.35928 -1.3415,0.11321 -1.3415,0.82807v1.82848c0,1.44186 -0.6062,4.07371 -2.29068,5.1684c-0.86,0.5589 -1.7888,-0.2776 -1.89332,-1.29792l-0.08583,-0.83784c-0.09977,-0.97401 -1.09176,-1.56529 -1.87021,-0.97144c-1.39849,1.06684 -2.85996,2.935 -2.85996,5.7166c0,7.1111 5.28889,8.8889 7.9333,8.8889c0.1538,0 0.3155,-0.0046 0.4838,-0.0143c-1.3058,-0.1116 -3.4171,-0.9218 -3.4171,-3.5416c0,-2.0493 1.49507,-3.4357 2.631,-4.1096c0.3055,-0.1813 0.6631,0.0541 0.6631,0.4093v0.5892c0,0.4509 0.1744,1.1558 0.5895,1.6383c0.4698,0.546 1.1593,-0.026 1.2149,-0.7441c0.0176,-0.2265 0.2454,-0.3709 0.4416,-0.2562c0.6413,0.3748 1.4599,1.1754 1.4599,2.4731c0,2.048 -1.129,2.9901 -2.1676,3.3571z"></path></g></g></svg>