<svg version="1.1" xmlns="http://www.w3.org/2000/svg" xmlns:xlink="http://www.w3.org/1999/xlink" width="800px" height="800px" viewBox="0,0,256,256"><g fill="#f1f1f1" fill-rule="nonzero" stroke="none" stroke-width="1" stroke-linecap="butt" stroke-linejoin="miter" stroke-miterlimit="10" stroke-dasharray="" stroke-dashoffset="0" font-family="none" font-weight="none" font-size="none" text-anchor="none" style="mix-blend-mode: normal"><g transform="translate(0,0.02514) scale(10.66667,10.66667)"><path d="M21.71,11.29l-9,-9c-0.18777,-0.18931 -0.44336,-0.2958 -0.71,-0.2958c-0.26664,0 -0.52223,0.10649 -0.71,0.2958l-9,9c-0.28374,0.28756 -0.3666,0.7176 -0.21,1.09c0.1534,0.37343 0.5163,0.61798 0.92,0.62h1v7.3c0.03796,0.97384 0.85601,1.73378 1.83,1.7h2.67c0.55228,0 1,-0.44772 1,-1v-4.9c0,-0.55228 0.44772,-1 1,-1h3c0.55228,0 1,0.44772 1,1v4.9c0,0.55228 0.44772,1 1,1h2.67c0.97399,0.03378 1.79204,-0.72616 1.83,-1.7v-7.3h1c0.4037,-0.00202 0.7666,-0.24657 0.92,-0.62c0.1566,-0.3724 0.07374,-0.80244 -0.21,-1.09z" id="primary"></path></g></g></svg>